<?xml version="1.0" encoding="UTF-8"?>
<svg id="Layer_2" data-name="Layer 2" xmlns="http://www.w3.org/2000/svg" viewBox="0 0 3744.74 576.29">
  <defs>
    <style>
      .cls-1 {
        fill: none;
      }

      .cls-2 {
        fill: #fff;
      }

      .cls-3 {
        fill: #0049ff;
      }
    </style>
  </defs>
  <g id="Layer_1-2" data-name="Layer 1">
    <g>
      <g>
        <path class="cls-1" d="M424.28,190.09c-30.48-41.96-79.93-69.24-135.75-69.24-92.6,0-167.67,75.07-167.67,167.67s75.07,167.67,167.67,167.67c55.72,0,105.1-27.18,135.58-69.01"/>
        <path class="cls-3" d="M576.29,448c0,70.86-57.44,128.29-128.29,128.29H128.29C57.44,576.29,0,518.86,0,448V128.29C0,57.44,57.44,0,128.29,0h319.72c70.85,0,128.29,57.44,128.29,128.29v319.71Z"/>
        <path class="cls-2" d="M288.53,466.12c-97.93,0-177.59-79.66-177.59-177.59s79.66-177.59,177.59-177.59c56.68,0,110.42,27.41,143.78,73.33,3.11,4.51,1.97,10.69-2.55,13.8-4.35,3-10.29,2.05-13.5-2.14-29.63-40.8-77.38-65.15-127.73-65.15-86.99,0-157.75,70.77-157.75,157.75s70.77,157.75,157.75,157.75c50.25,0,97.93-24.27,127.58-64.94,3.34-4.34,9.57-5.15,13.91-1.8,4.18,3.22,5.11,9.14,2.11,13.49-33.36,45.77-87.04,73.09-143.6,73.09h0ZM256.21,212.51c-1.53-1.12-3.27-2.12-4.71-2.12-3.64,0-6.59,2.95-6.59,6.59v140.7c0,3.64,2.97,6.59,6.61,6.58,1.22,0,2.42-.35,3.45-.99,1.24-.78,120.42-68.75,121.58-69.76,1.39-1.21,2.27-2.99,2.27-4.97,0-1.71-.65-3.26-1.71-4.43-1.21-1.32-118.92-70.14-120.91-71.6Z"/>
      </g>
      <g>
        <path class="cls-2" d="M843.62,456.83c-50.41,0-88.82-12.9-115.21-38.7-26.4-25.8-39.6-61.67-39.6-107.61s12.9-85.16,38.7-111.41c25.8-26.25,64.35-39.37,115.66-39.37,17.6,0,33.33,1.34,47.2,4.03s27.22,6.26,40.05,10.74v63.09c-25.95-10.74-53.24-16.11-81.88-16.11s-51.68,7.16-65.55,21.48c-13.87,14.32-20.81,36.84-20.81,67.56s7.31,50.71,21.92,64.43c14.61,13.72,36.39,20.58,65.33,20.58,14.02,0,27.89-1.26,41.61-3.8,13.72-2.53,26.99-6.49,39.82-11.86v63.54c-12.53,4.18-25.81,7.46-39.82,9.84-14.02,2.38-29.83,3.58-47.43,3.58Z"/>
        <path class="cls-2" d="M1033.78,456.83c-13.42,0-25.88-2.39-37.36-7.16-11.49-4.77-20.66-12.15-27.52-22.15-6.86-9.99-10.29-22.44-10.29-37.36,0-21.77,7.38-38.85,22.15-51.23,14.77-12.37,36.91-18.57,66.44-18.57h59.06v-4.92c0-10.74-3.58-18.42-10.74-23.04-7.16-4.62-20.58-6.93-40.27-6.93-24.16,0-47.88,3.73-71.14,11.19v-46.53c10.44-4.17,23.19-7.61,38.26-10.29,15.06-2.69,30.94-4.03,47.65-4.03,32.81,0,58.54,6.71,77.18,20.13,18.64,13.42,27.96,34.75,27.96,63.98v132.44h-63.09l-3.58-17.9c-7.76,7.16-17.67,12.68-29.75,16.56-12.08,3.87-27.07,5.82-44.97,5.82ZM1056.6,412.53c11.33,0,21.18-1.94,29.53-5.82,8.35-3.87,15.06-8.79,20.13-14.76v-29.98h-51.01c-21.18,0-31.77,8.5-31.77,25.5,0,7.76,2.69,13.87,8.05,18.35,5.37,4.47,13.72,6.71,25.06,6.71Z"/>
        <path class="cls-2" d="M1218.56,452.35v-212.08h68.46l2.24,19.69c9.24-5.66,20.73-10.81,34.45-15.44,13.72-4.62,27.44-7.53,41.16-8.72v54.14c-7.76.89-16.33,2.31-25.73,4.25-9.39,1.94-18.34,4.25-26.85,6.94-8.5,2.68-15.74,5.52-21.7,8.5v142.73h-72.04Z"/>
        <path class="cls-2" d="M1392.16,549V240.27h62.64l3.58,18.35c8.65-7.16,18.35-12.75,29.08-16.78,10.74-4.03,23.27-6.04,37.58-6.04,30.13,0,53.99,8.13,71.59,24.38,17.6,16.26,26.4,43.48,26.4,81.66s-9.03,66.52-27.07,85.91c-18.05,19.39-42.88,29.08-74.5,29.08-22.37,0-41.46-4.62-57.27-13.87v106.04h-72.04ZM1503.12,404.03c31.02,0,46.53-21.18,46.53-63.54,0-20.28-3.58-34.01-10.74-41.16-7.16-7.16-18.64-10.74-34.45-10.74s-28.64,5.37-40.27,16.11v85.91c5.66,4.18,11.41,7.46,17.22,9.84,5.82,2.39,13.05,3.58,21.7,3.58Z"/>
        <path class="cls-2" d="M1725.94,456.83c-13.42,0-25.88-2.39-37.36-7.16-11.49-4.77-20.66-12.15-27.52-22.15-6.86-9.99-10.29-22.44-10.29-37.36,0-21.77,7.38-38.85,22.15-51.23,14.77-12.37,36.91-18.57,66.44-18.57h59.06v-4.92c0-10.74-3.58-18.42-10.74-23.04-7.16-4.62-20.58-6.93-40.27-6.93-24.16,0-47.88,3.73-71.14,11.19v-46.53c10.44-4.17,23.19-7.61,38.26-10.29,15.06-2.69,30.94-4.03,47.65-4.03,32.81,0,58.54,6.71,77.18,20.13,18.64,13.42,27.96,34.75,27.96,63.98v132.44h-63.09l-3.58-17.9c-7.76,7.16-17.67,12.68-29.75,16.56-12.08,3.87-27.07,5.82-44.97,5.82ZM1748.76,412.53c11.33,0,21.18-1.94,29.53-5.82,8.35-3.87,15.06-8.79,20.13-14.76v-29.98h-51.01c-21.18,0-31.77,8.5-31.77,25.5,0,7.76,2.69,13.87,8.05,18.35,5.37,4.47,13.72,6.71,25.06,6.71Z"/>
        <path class="cls-2" d="M1953.68,531.1c-10.74,0-19.91-.52-27.52-1.57-7.61-1.05-15.14-3.06-22.59-6.04v-50.11c5.07,1.79,9.77,2.98,14.09,3.58,4.32.59,8.73.9,13.2.9,12.23,0,21.4-2.17,27.52-6.49,6.11-4.33,12.3-12.01,18.57-23.04l-95.3-208.06h75.62l55.93,134.68,55.03-134.68h75.17l-80.99,194.63c-8.05,19.39-17,36.31-26.85,50.78-9.84,14.46-21.33,25.65-34.45,33.56-13.13,7.9-28.93,11.86-47.43,11.86Z"/>
        <path class="cls-2" d="M2359.05,456.83c-19.09,0-36.91-1.42-53.47-4.25-16.55-2.83-30.8-6.93-42.73-12.3v-61.3c13.12,5.67,27.66,10.29,43.62,13.87,15.95,3.58,31.1,5.37,45.41,5.37,17.9,0,31.24-1.64,40.05-4.92,8.79-3.28,13.2-10.44,13.2-21.48,0-7.45-2.17-13.42-6.49-17.9-4.33-4.47-11.34-8.42-21.03-11.86-9.7-3.43-22.9-7.53-39.6-12.3-19.69-5.96-35.35-12.6-46.98-19.91-11.63-7.31-19.99-16.18-25.06-26.62-5.08-10.44-7.61-23.27-7.61-38.48,0-27.44,9.84-48.47,29.53-63.09,19.69-14.61,48.77-21.92,87.25-21.92,16.7,0,32.95,1.27,48.77,3.8,15.81,2.54,28.64,5.44,38.48,8.72v61.75c-12.83-5.07-25.73-8.8-38.7-11.19-12.98-2.39-25.58-3.58-37.81-3.58-16.11,0-29.16,1.5-39.15,4.47-10,2.99-14.99,9.84-14.99,20.58,0,6.26,1.79,11.26,5.37,14.99,3.58,3.73,9.77,7.09,18.57,10.07,8.79,2.98,20.81,6.57,36.02,10.74,23.56,6.26,41.61,13.8,54.14,22.59,12.53,8.8,21.18,18.95,25.95,30.43,4.77,11.49,7.16,24.38,7.16,38.7,0,25.36-9.84,45.86-29.53,61.52-19.69,15.66-49.82,23.49-90.38,23.49Z"/>
        <path class="cls-2" d="M2629.3,456.83c-36.99,0-66.67-9.17-89.04-27.52-22.37-18.35-33.56-46.01-33.56-83,0-33.7,9.24-60.55,27.74-80.54,18.49-19.98,46.23-29.98,83.22-29.98,33.7,0,59.8,8.65,78.3,25.95,18.49,17.3,27.74,40.57,27.74,69.8v38.03h-150.34c3.28,14.02,10.96,23.79,23.04,29.31,12.08,5.52,28.56,8.28,49.44,8.28,11.63,0,23.49-1.04,35.57-3.13,12.08-2.08,22.15-4.77,30.2-8.06v46.98c-10.14,4.78-22.23,8.28-36.24,10.52-14.02,2.24-29.38,3.36-46.08,3.36ZM2573.37,327.97h87.7v-9.4c0-10.44-3.13-18.72-9.4-24.83-6.26-6.11-16.86-9.17-31.77-9.17-17.3,0-29.38,3.51-36.24,10.52-6.86,7.01-10.29,17.97-10.29,32.89Z"/>
        <path class="cls-2" d="M2760.39,452.35v-212.08h68.46l2.24,19.69c9.24-5.66,20.73-10.81,34.45-15.44,13.72-4.62,27.44-7.53,41.16-8.72v54.14c-7.76.89-16.33,2.31-25.73,4.25-9.39,1.94-18.34,4.25-26.85,6.94-8.5,2.68-15.74,5.52-21.7,8.5v142.73h-72.04Z"/>
        <path class="cls-2" d="M2993.06,452.35l-83.67-212.08h75.17l46.53,137.81,46.98-137.81h75.17l-83.67,212.08h-76.51Z"/>
        <path class="cls-2" d="M3194.4,452.35v-158.84h-31.32l6.26-53.24h97.09v212.08h-72.04ZM3188.58,206.71v-54.14h78.3v54.14h-78.3Z"/>
        <path class="cls-2" d="M3424.38,456.83c-37.89,0-67.49-9.24-88.82-27.74-21.33-18.49-31.99-46.08-31.99-82.78s11.11-65.02,33.33-83.22c22.22-18.19,51.83-27.29,88.82-27.29,15.51,0,29.01,1.12,40.49,3.36,11.48,2.24,22.59,5.89,33.33,10.96v51.01c-16.71-8.06-36.24-12.08-58.61-12.08-20.88,0-36.76,4.18-47.65,12.53-10.89,8.35-16.33,23.27-16.33,44.74,0,19.99,5.07,34.53,15.21,43.62,10.14,9.1,26.25,13.65,48.32,13.65s41.61-4.47,59.51-13.42v53.24c-10.74,4.78-22.3,8.21-34.68,10.29-12.38,2.08-26.03,3.13-40.94,3.13Z"/>
        <path class="cls-2" d="M3650.33,456.83c-36.99,0-66.67-9.17-89.04-27.52-22.37-18.35-33.56-46.01-33.56-83,0-33.7,9.24-60.55,27.74-80.54,18.49-19.98,46.23-29.98,83.22-29.98,33.7,0,59.8,8.65,78.3,25.95,18.49,17.3,27.74,40.57,27.74,69.8v38.03h-150.34c3.28,14.02,10.96,23.79,23.04,29.31,12.08,5.52,28.56,8.28,49.44,8.28,11.63,0,23.49-1.04,35.57-3.13,12.08-2.08,22.15-4.77,30.2-8.06v46.98c-10.14,4.78-22.23,8.28-36.24,10.52-14.02,2.24-29.38,3.36-46.08,3.36ZM3594.4,327.97h87.7v-9.4c0-10.44-3.13-18.72-9.4-24.83-6.26-6.11-16.86-9.17-31.77-9.17-17.3,0-29.38,3.51-36.24,10.52-6.86,7.01-10.29,17.97-10.29,32.89Z"/>
      </g>
    </g>
  </g>
</svg>